<svg width="197" height="50" viewBox="0 0 197 50" fill="none" xmlns="http://www.w3.org/2000/svg">
<rect width="50" height="50" rx="5" fill="#303030"/>
<circle cx="12" cy="25" r="5" fill="#8F8E8E"/>
<circle cx="25" cy="25" r="5" fill="#AEACAC"/>
<circle cx="38" cy="25" r="5" fill="#D9D9D9"/>
<path d="M64.7895 35C62.8365 35 61.41 34.55 60.51 33.65C59.61 32.75 59.16 31.3235 59.16 29.3705V23.228C59.16 21.257 59.6055 19.826 60.4965 18.935C61.3965 18.044 62.8185 17.5985 64.7625 17.5985H68.0295C69.6855 17.5985 70.9185 17.945 71.7285 18.638C72.5385 19.322 72.984 20.4245 73.065 21.9455C73.092 22.1885 73.0425 22.373 72.9165 22.499C72.7995 22.625 72.624 22.688 72.39 22.688C71.94 22.688 71.6925 22.4495 71.6475 21.9725C71.5845 20.8565 71.2785 20.087 70.7295 19.664C70.1805 19.232 69.2805 19.016 68.0295 19.016H64.7625C63.7275 19.016 62.904 19.151 62.292 19.421C61.68 19.682 61.239 20.123 60.969 20.744C60.708 21.356 60.5775 22.184 60.5775 23.228V29.3705C60.5775 30.4145 60.7125 31.2425 60.9825 31.8545C61.2525 32.4665 61.6935 32.9075 62.3055 33.1775C62.9175 33.4475 63.7455 33.5825 64.7895 33.5825H68.0295C69.2805 33.5825 70.1805 33.371 70.7295 32.948C71.2785 32.516 71.5845 31.742 71.6475 30.626C71.6925 30.149 71.94 29.9105 72.39 29.9105C72.624 29.9105 72.7995 29.978 72.9165 30.113C73.0425 30.239 73.092 30.419 73.065 30.653C72.984 32.174 72.5385 33.281 71.7285 33.974C70.9185 34.658 69.6855 35 68.0295 35H64.7895ZM76.1171 34.9325C75.6851 34.7435 75.5546 34.4285 75.7256 33.9875L82.4216 18.152C82.5656 17.783 82.8311 17.5985 83.2181 17.5985H83.2991C83.6681 17.6075 83.9291 17.792 84.0821 18.152L90.7781 33.9875C90.9581 34.4285 90.8321 34.7435 90.4001 34.9325C89.9591 35.1125 89.6531 34.9865 89.4821 34.5545L87.6866 30.302H78.8441L77.0486 34.5545C76.8686 34.9865 76.5581 35.1125 76.1171 34.9325ZM79.4246 28.8845H87.0926L83.2586 19.8395L79.4246 28.8845ZM94.781 35C94.304 35 94.0655 34.7615 94.0655 34.2845V18.314C94.0655 17.837 94.304 17.5985 94.781 17.5985C95.123 17.5985 95.393 17.756 95.591 18.071L102.314 28.3445L101.99 28.385L108.713 18.071C108.902 17.756 109.186 17.5985 109.564 17.5985C109.987 17.5985 110.198 17.837 110.198 18.314V34.2845C110.198 34.7615 109.964 35 109.496 35C109.019 35 108.781 34.7615 108.781 34.2845V19.7315L109.199 19.8665L102.962 29.3705C102.764 29.6765 102.481 29.8295 102.112 29.8295C101.788 29.8295 101.527 29.6765 101.329 29.3705L95.0915 19.8665L95.483 20.015V34.2845C95.483 34.7615 95.249 35 94.781 35ZM115.954 35C115.477 35 115.238 34.7615 115.238 34.2845V18.314C115.238 17.837 115.477 17.5985 115.954 17.5985H123.001C124.324 17.5985 125.323 17.936 125.998 18.611C126.682 19.277 127.024 20.258 127.024 21.554V22.283C127.024 23.696 126.569 24.695 125.66 25.28C127.235 25.928 128.023 27.332 128.023 29.492V30.3425C128.023 31.8725 127.627 33.0335 126.835 33.8255C126.052 34.6085 124.891 35 123.352 35H115.954ZM116.656 33.5825H123.352C124.495 33.5825 125.323 33.326 125.836 32.813C126.349 32.3 126.605 31.4765 126.605 30.3425V29.492C126.605 28.358 126.349 27.539 125.836 27.035C125.332 26.531 124.504 26.279 123.352 26.279H116.656V33.5825ZM116.656 24.8615H123.203C124.022 24.8615 124.625 24.6545 125.012 24.2405C125.408 23.8175 125.606 23.165 125.606 22.283V21.554C125.606 20.654 125.399 20.006 124.985 19.61C124.58 19.214 123.919 19.016 123.001 19.016H116.656V24.8615ZM132.697 35C132.472 35 132.297 34.937 132.171 34.811C132.045 34.685 131.982 34.5095 131.982 34.2845V18.3005C131.982 18.0755 132.045 17.9 132.171 17.774C132.297 17.648 132.472 17.585 132.697 17.585C132.913 17.585 133.084 17.648 133.21 17.774C133.336 17.9 133.399 18.0755 133.399 18.3005V34.2845C133.399 34.5095 133.336 34.685 133.21 34.811C133.084 34.937 132.913 35 132.697 35ZM137.078 34.9325C136.646 34.7435 136.515 34.4285 136.686 33.9875L143.382 18.152C143.526 17.783 143.792 17.5985 144.179 17.5985H144.26C144.629 17.6075 144.89 17.792 145.043 18.152L151.739 33.9875C151.919 34.4285 151.793 34.7435 151.361 34.9325C150.92 35.1125 150.614 34.9865 150.443 34.5545L148.647 30.302H139.805L138.009 34.5545C137.829 34.9865 137.519 35.1125 137.078 34.9325ZM140.385 28.8845H148.053L144.219 19.8395L140.385 28.8845Z" fill="black"/>
<path d="M156.444 35C155.688 35 155.31 34.622 155.31 33.866V17.828C155.31 17.072 155.688 16.694 156.444 16.694C156.939 16.694 157.353 16.937 157.686 17.423L164.058 27.008L163.572 27.089L169.998 17.423C170.304 16.937 170.763 16.694 171.375 16.694C171.987 16.694 172.293 17.072 172.293 17.828V33.866C172.293 34.622 171.915 35 171.159 35C170.403 35 170.025 34.622 170.025 33.866V20.096L170.727 20.339L165.057 28.682C164.724 29.168 164.265 29.411 163.68 29.411C163.275 29.411 162.906 29.168 162.573 28.682L156.903 20.339L157.578 20.528V33.866C157.578 34.622 157.2 35 156.444 35ZM179.041 35C178.285 35 177.907 34.622 177.907 33.866V17.828C177.907 17.072 178.285 16.694 179.041 16.694H188.734C189.49 16.694 189.868 17.072 189.868 17.828C189.868 18.584 189.49 18.962 188.734 18.962H180.175V24.632H185.548C186.304 24.632 186.682 25.01 186.682 25.766C186.682 26.522 186.304 26.9 185.548 26.9H180.175V32.732H188.734C189.49 32.732 189.868 33.11 189.868 33.866C189.868 34.622 189.49 35 188.734 35H179.041Z" fill="#FF650E"/>
</svg>
