<svg width="160" height="25" viewBox="0 0 160 25" fill="none" xmlns="http://www.w3.org/2000/svg">
<path d="M8.27273 24H0.0227273V0.727272H8.34091C10.6818 0.727272 12.697 1.19318 14.3864 2.125C16.0758 3.04924 17.375 4.37879 18.2841 6.11364C19.2008 7.84848 19.6591 9.92424 19.6591 12.3409C19.6591 14.7652 19.2008 16.8485 18.2841 18.5909C17.375 20.3333 16.0682 21.6705 14.3636 22.6023C12.6667 23.5341 10.6364 24 8.27273 24ZM4.94318 19.7841H8.06818C9.52273 19.7841 10.7462 19.5265 11.7386 19.0114C12.7386 18.4886 13.4886 17.6818 13.9886 16.5909C14.4962 15.4924 14.75 14.0758 14.75 12.3409C14.75 10.6212 14.4962 9.21591 13.9886 8.125C13.4886 7.03409 12.7424 6.23106 11.75 5.71591C10.7576 5.20076 9.53409 4.94318 8.07955 4.94318H4.94318V19.7841ZM44.6903 12.3636C44.6903 14.9015 44.2093 17.0606 43.2472 18.8409C42.2926 20.6212 40.9896 21.9811 39.3381 22.9205C37.6941 23.8523 35.8456 24.3182 33.7926 24.3182C31.7244 24.3182 29.8684 23.8485 28.2244 22.9091C26.5805 21.9697 25.2813 20.6098 24.3267 18.8295C23.3722 17.0492 22.8949 14.8939 22.8949 12.3636C22.8949 9.82576 23.3722 7.66667 24.3267 5.88636C25.2813 4.10606 26.5805 2.75 28.2244 1.81818C29.8684 0.878787 31.7244 0.40909 33.7926 0.40909C35.8456 0.40909 37.6941 0.878787 39.3381 1.81818C40.9896 2.75 42.2926 4.10606 43.2472 5.88636C44.2093 7.66667 44.6903 9.82576 44.6903 12.3636ZM39.7017 12.3636C39.7017 10.7197 39.4555 9.33333 38.9631 8.20455C38.4782 7.07576 37.7926 6.2197 36.9062 5.63636C36.0199 5.05303 34.982 4.76136 33.7926 4.76136C32.6032 4.76136 31.5653 5.05303 30.679 5.63636C29.7926 6.2197 29.1032 7.07576 28.6108 8.20455C28.1259 9.33333 27.8835 10.7197 27.8835 12.3636C27.8835 14.0076 28.1259 15.3939 28.6108 16.5227C29.1032 17.6515 29.7926 18.5076 30.679 19.0909C31.5653 19.6742 32.6032 19.9659 33.7926 19.9659C34.982 19.9659 36.0199 19.6742 36.9062 19.0909C37.7926 18.5076 38.4782 17.6515 38.9631 16.5227C39.4555 15.3939 39.7017 14.0076 39.7017 12.3636ZM48.3352 24V0.727272H57.517C59.2822 0.727272 60.786 1.06439 62.0284 1.73864C63.2708 2.4053 64.2178 3.33333 64.8693 4.52273C65.5284 5.70454 65.858 7.06818 65.858 8.61364C65.858 10.1591 65.5246 11.5227 64.858 12.7045C64.1913 13.8864 63.2254 14.8068 61.9602 15.4659C60.7027 16.125 59.1799 16.4545 57.392 16.4545H51.5398V12.5114H56.5966C57.5436 12.5114 58.3239 12.3485 58.9375 12.0227C59.5587 11.6894 60.0208 11.2311 60.3239 10.6477C60.6345 10.0568 60.7898 9.37879 60.7898 8.61364C60.7898 7.84091 60.6345 7.16667 60.3239 6.59091C60.0208 6.00757 59.5587 5.55682 58.9375 5.23864C58.3163 4.91288 57.5284 4.75 56.5739 4.75H53.2557V24H48.3352ZM95.983 8H93.1648C92.9981 7.18939 92.7064 6.47727 92.2898 5.86364C91.8807 5.25 91.3807 4.73485 90.7898 4.31818C90.2064 3.89394 89.5587 3.57576 88.8466 3.36364C88.1345 3.15151 87.392 3.04545 86.6193 3.04545C85.2102 3.04545 83.9337 3.40151 82.7898 4.11364C81.6534 4.82576 80.7481 5.875 80.0739 7.26136C79.4072 8.64773 79.0739 10.3485 79.0739 12.3636C79.0739 14.3788 79.4072 16.0795 80.0739 17.4659C80.7481 18.8523 81.6534 19.9015 82.7898 20.6136C83.9337 21.3258 85.2102 21.6818 86.6193 21.6818C87.392 21.6818 88.1345 21.5758 88.8466 21.3636C89.5587 21.1515 90.2064 20.8371 90.7898 20.4205C91.3807 19.9962 91.8807 19.4773 92.2898 18.8636C92.7064 18.2424 92.9981 17.5303 93.1648 16.7273H95.983C95.7708 17.9167 95.3845 18.9811 94.8239 19.9205C94.2633 20.8598 93.5663 21.6591 92.733 22.3182C91.8996 22.9697 90.964 23.4659 89.9261 23.8068C88.8958 24.1477 87.7936 24.3182 86.6193 24.3182C84.6345 24.3182 82.8693 23.8333 81.3239 22.8636C79.7784 21.8939 78.5625 20.5152 77.6761 18.7273C76.7898 16.9394 76.3466 14.8182 76.3466 12.3636C76.3466 9.90909 76.7898 7.78788 77.6761 6C78.5625 4.21212 79.7784 2.83333 81.3239 1.86364C82.8693 0.893939 84.6345 0.40909 86.6193 0.40909C87.7936 0.40909 88.8958 0.579545 89.9261 0.920454C90.964 1.26136 91.8996 1.76136 92.733 2.42045C93.5663 3.07197 94.2633 3.86742 94.8239 4.80682C95.3845 5.73864 95.7708 6.80303 95.983 8ZM100.537 24V0.727272H103.355V11.0909H115.764V0.727272H118.582V24H115.764V13.5909H103.355V24H100.537ZM125.179 24H122.224L130.77 0.727272H133.679L142.224 24H139.27L132.315 4.40909H132.134L125.179 24ZM126.27 14.9091H138.179V17.4091H126.27V14.9091ZM141.858 3.22727V0.727272H159.312V3.22727H151.994V24H149.176V3.22727H141.858Z" fill="black"/>
</svg>
