<svg width="74" height="74" viewBox="0 0 74 74" fill="none" xmlns="http://www.w3.org/2000/svg">
<rect width="74" height="74" rx="12" fill="#0094FF"/>
<path d="M18.25 57.0833C23.3586 57.0833 27.5 52.9419 27.5 47.8333C27.5 42.7247 23.3586 38.5833 18.25 38.5833C13.1414 38.5833 9 42.7247 9 47.8333C9 52.9419 13.1414 57.0833 18.25 57.0833Z" stroke="white" stroke-width="2" stroke-linecap="round" stroke-linejoin="round"/>
<path d="M55.25 35.5C60.3586 35.5 64.5 31.3586 64.5 26.25C64.5 21.1414 60.3586 17 55.25 17C50.1414 17 46 21.1414 46 26.25C46 31.3586 50.1414 35.5 55.25 35.5Z" stroke="white" stroke-width="2" stroke-linecap="round" stroke-linejoin="round"/>
<path d="M47.2642 30.9058L26.2358 43.1775" stroke="white" stroke-width="2" stroke-linecap="round" stroke-linejoin="round"/>
</svg>
